<svg xmlns="http://www.w3.org/2000/svg" viewBox="0 0 180 180" width="180" height="180">
  <defs>
    <linearGradient id="g" x1="0" y1="0" x2="1" y2="1">
      <stop offset="0" stop-color="#22D3EE"/>
      <stop offset="1" stop-color="#A855F7"/>
    </linearGradient>
    <radialGradient id="r" cx="0.3" cy="0.2" r="1">
      <stop offset="0" stop-color="#1F2937" stop-opacity="1"/>
      <stop offset="1" stop-color="#05050B" stop-opacity="1"/>
    </radialGradient>
  </defs>
  <rect width="180" height="180" rx="40" fill="url(#r)"/>
  <!-- camera body, scaled up -->
  <path d="M48 62h18l8-10h28l8 10h18a6 6 0 0 1 6 6v54a6 6 0 0 1-6 6H48a6 6 0 0 1-6-6V68a6 6 0 0 1 6-6z" fill="url(#g)" opacity="0.18"/>
  <path d="M48 62h18l8-10h28l8 10h18a6 6 0 0 1 6 6v54a6 6 0 0 1-6 6H48a6 6 0 0 1-6-6V68a6 6 0 0 1 6-6z" stroke="url(#g)" stroke-width="6" fill="none" stroke-linejoin="round"/>
  <circle cx="90" cy="96" r="22" stroke="url(#g)" stroke-width="6" fill="none"/>
  <circle cx="90" cy="96" r="8" fill="url(#g)"/>
</svg>
